#!OML:ASF F:\VICON\USERDATA\INSTALL\rory3\rory3.ASF
:FULLY-SPECIFIED
:DEGREES
866
root -5.1971 17.8456 0.931712 8.34247 21.2619 6.52311
lowerback 15.5475 0.573632 -0.930168
upperback 2.14457 0.618958 -0.0856713
thorax -6.4428 0.333051 0.306491
lowerneck -22.5599 -9.75815 -11.2651
upperneck 16.4387 -12.1235 10.6142
head 10.3239 -5.14588 3.62086
rclavicle 4.51241e-014 -3.97569e-015
rhumerus 45.9109 -6.67687 -17.2824
rradius 31.3164
rwrist 35.6388
rhand -2.3187 9.6812
rfingers 7.12502
rthumb 23.3677 -18.9203
lclavicle 4.51241e-014 -3.97569e-015
lhumerus -3.59998 -41.7691 92.2548
lradius 113.891
lwrist -10.6579
lhand -5.87106 6.27593
lfingers 7.12502
lthumb 19.9563 35.2712
rfemur -36.9181 1.55702 2.5114
rtibia 47.4726
rfoot -2.7915 -4.20653
rtoes -2.04871
lfemur -10.0062 -4.41444 -7.54469
ltibia 35.9718
lfoot 2.24243 -3.65681
ltoes -29.8934
867
root -5.22349 17.8158 0.935262 8.70234 23.3289 6.56021
lowerback 15.6577 0.491527 -1.21638
upperback 2.10182 0.452573 -0.233704
thorax -6.54775 0.258805 0.345095
lowerneck -22.451 -10.2421 -10.9772
upperneck 15.5659 -13.166 12.0923
head 10.2254 -5.45837 3.90743
rclavicle 1.66979e-014 0
rhumerus 42.8759 -7.76679 -19.1114
rradius 35.4483
rwrist 29.0299
rhand -6.74996 8.28985
rfingers 7.12502
rthumb 19.1113 -20.7912
lclavicle 1.66979e-014 0
lhumerus -2.45929 -42.7324 91.304
lradius 114.728
lwrist -11.2071
lhand -6.99594 6.39725
lfingers 7.12502
lthumb 18.8747 35.5015
rfemur -37.0359 1.51331 2.59949
rtibia 48.3259
rfoot -2.40857 -4.03196
rtoes -0.777111
lfemur -10.8736 -5.1867 -6.64671
ltibia 35.6839
lfoot 3.35925 -4.56277
ltoes -29.582
868
root -5.25763 17.7686 0.948109 9.18631 25.793 6.5804
lowerback 15.1982 0.306087 -1.93623
upperback 2.16659 0.113957 -0.0408405
thorax -6.22204 0.111597 1.0291
lowerneck -21.9334 -10.6066 -10.8354
upperneck 14.4967 -13.9243 13.3052
head 9.95439 -5.71351 4.18107
rclavicle 8.15017e-015 -3.18055e-014
rhumerus 40.6149 -9.68435 -22.5167
rradius 40.0733
rwrist 26.0618
rhand -10.3616 8.0089
rfingers 7.12502
rthumb 15.6354 -21.3793
lclavicle 8.15017e-015 -3.18055e-014
lhumerus -1.35632 -43.3413 90.7638
lradius 115.583
lwrist -11.7397
lhand -8.54308 6.20786
lfingers 7.12502
lthumb 17.3862 35.4503
rfemur -37.1647 1.43321 2.68747
rtibia 49.0587
rfoot -1.92084 -3.78406
rtoes 0.677135
lfemur -12.0423 -5.99815 -5.59689
ltibia 35.4478
lfoot 4.29247 -5.51935
ltoes -30.278
869
root -5.28802 17.7023 0.96831 9.75373 28.3546 6.93955
lowerback 14.9759 -0.125184 -2.70118
upperback 2.00484 -0.576726 -0.0728248
thorax -6.24156 -0.205858 1.5666
lowerneck -21.1086 -10.6842 -10.5539
upperneck 13.748 -14.2992 14.201
head 9.66438 -5.83564 4.40219
rclavicle -3.12092e-014 -1.03368e-014
rhumerus 38.7721 -11.1878 -26.817
rradius 44.5769
rwrist 25.3041
rhand -11.9889 7.91294
rfingers 7.12502
rthumb 14.0677 -21.5909
lclavicle -3.12092e-014 -1.03368e-014
lhumerus -1.29336 -43.4858 90.4768
lradius 116.604
lwrist -12.0471
lhand -9.06077 6.14713
lfingers 7.12502
lthumb 16.8879 35.4328
rfemur -37.1397 1.30795 2.44518
rtibia 49.6377
rfoot -0.974983 -3.02917
rtoes 0.342961
lfemur -13.115 -6.8646 -4.86474
ltibia 35.2575
lfoot 4.83491 -6.12623
ltoes -31.1141
870
root -5.31062 17.628 0.996869 10.2205 30.9699 7.48636
lowerback 15.0434 -0.741583 -3.41423
upperback 1.70306 -1.52078 -0.154878
thorax -6.53965 -0.640468 2.07601
lowerneck -20.275 -10.553 -10.2371
upperneck 13.6321 -14.3193 14.4428
head 9.48198 -5.84594 4.45892
rclavicle 9.93923e-015 6.36111e-015
rhumerus 37.0483 -11.8581 -30.9023
rradius 48.925
rwrist 24.332
rhand -12.4595 7.62004
rfingers 7.12502
rthumb 13.6142 -21.9148
lclavicle 9.93923e-015 6.36111e-015
lhumerus -2.11461 -43.1247 90.6272
lradius 117.74
lwrist -11.8841
lhand -8.5932 6.16194
lfingers 7.12502
lthumb 17.338 35.4086
rfemur -36.7536 1.2163 2.07785
rtibia 50.0838
rfoot -0.0601752 -1.65433
rtoes 2.37681
lfemur -13.8545 -7.79232 -4.31128
ltibia 35.094
lfoot 4.94789 -6.49611
ltoes -31.0894
